# xmcd
#
# Track frame offsets: 
#        150
#        13513
#        32208
#        53143
#        75845
#        105035
#        121395
#        140800
#        165935
#        186033
#        202060
#        225668
#        248085
#
# Disc length: 3582 seconds
#
# Revision: 2
# Processed by: cddbd v1.5.2PL0 Copyright (c) Steve Scherf et al.
# Submitted via: ExactAudioCopy v0.95b4
#
DISCID=9a0dfc0d
DTITLE=Diana Krall - All for You: A Dedication to the Nat King Cole Tr
DTITLE=io
DYEAR=1996
DGENRE=Jazz
TTITLE0=I'm An Errand Girl For Rhythm
TTITLE1=Gee Baby, Ain't I Good To You
TTITLE2=You Call It Madness
TTITLE3=Frim Fram Sauce
TTITLE4=Boulevard Of Broken Dreams
TTITLE5=Baby Baby All The Time
TTITLE6=Hit That Jive Jack
TTITLE7=You're Looking At Me
TTITLE8=Narrow Daylight
TTITLE9=I'm Thru With Love
TTITLE10=Deed I Do
TTITLE11=A Blossom Fell
TTITLE12=If I Had You
EXTD=YEAR: 2004
EXTT0=
EXTT1=
EXTT2=
EXTT3=
EXTT4=
EXTT5=
EXTT6=
EXTT7=
EXTT8=
EXTT9=
EXTT10=
EXTT11=
EXTT12=
PLAYORDER=
